<?xml version="1.0" encoding="UTF-8"?>
<svg width="22px" height="20px" viewBox="0 0 22 20" version="1.1" xmlns="http://www.w3.org/2000/svg" xmlns:xlink="http://www.w3.org/1999/xlink">
    <!-- Generator: Sketch 54.1 (76490) - https://sketchapp.com -->
    <title>book-open--dark</title>
    <desc>Created with Sketch.</desc>
    <g id="Page-1" stroke="none" stroke-width="1" fill="none" fill-rule="evenodd">
        <g id="book-open--dark" fill="#F9F9F9" fill-rule="nonzero">
            <path d="M18,0 L13,4.5 L13,15.5 L18,11 L18,0 L18,0 Z M5.5,3 C3.55,3 1.45,3.4 0,4.5 L0,19.16 C0,19.41 0.25,19.66 0.5,19.66 C0.6,19.66 0.65,19.59 0.75,19.59 C2.1,18.94 4.05,18.5 5.5,18.5 C7.45,18.5 9.55,18.9 11,20 C12.35,19.15 14.8,18.5 16.5,18.5 C18.15,18.5 19.85,18.81 21.25,19.56 C21.35,19.61 21.4,19.59 21.5,19.59 C21.75,19.59 22,19.34 22,19.09 L22,4.5 C21.4,4.05 20.75,3.75 20,3.5 L20,5.5 L20,11 L20,17 C18.9,16.65 17.7,16.5 16.5,16.5 C14.8,16.5 12.35,17.15 11,18 L11,11 L11,6.5 L11,4.5 C9.55,3.4 7.45,3 5.5,3 L5.5,3 Z" id="Shape"></path>
        </g>
    </g>
</svg>