<!DOCTYPE svg PUBLIC "-//W3C//DTD SVG 20010904//EN" "http://www.w3.org/TR/2001/REC-SVG-20010904/DTD/svg10.dtd">
<svg version="1.0" xmlns="http://www.w3.org/2000/svg" width="98px" height="124px" viewBox="0 0 980 1240" preserveAspectRatio="xMidYMid meet">
<g id="layer101" fill="#000000" stroke="none">
 <path d="M542 1210 c-105 -38 -238 -107 -273 -143 -20 -20 -48 -60 -63 -88 -29 -52 -31 -92 -10 -196 6 -29 -3 -45 -87 -160 -51 -70 -97 -140 -102 -154 -19 -50 14 -111 69 -125 45 -11 88 18 151 106 32 44 59 76 61 70 7 -20 64 -42 94 -36 23 5 37 0 61 -20 24 -20 39 -25 70 -22 32 3 45 -1 63 -19 23 -23 73 -31 108 -17 21 8 137 167 170 232 15 29 41 95 57 145 16 50 39 111 51 134 23 46 19 73 -11 73 -26 0 -50 -47 -102 -198 -49 -141 -53 -149 -128 -250 -47 -64 -66 -82 -85 -82 -40 0 -42 33 -5 85 27 37 30 47 19 60 -21 25 -37 17 -82 -42 -33 -43 -50 -58 -68 -58 -36 0 -38 37 -5 86 29 41 28 69 -4 69 -13 0 -34 -19 -58 -55 -41 -58 -65 -74 -88 -55 -23 19 -18 36 26 100 43 60 46 90 10 90 -14 0 -54 -48 -138 -165 -65 -90 -126 -167 -136 -171 -21 -7 -47 12 -47 33 0 8 69 108 153 224 83 116 156 216 161 223 13 19 0 46 -23 46 -12 0 -34 -21 -59 -56 l-41 -57 -6 36 c-10 51 1 86 43 141 44 59 115 100 256 150 99 35 119 48 109 73 -7 18 -47 15 -111 -7z"/>
 <path d="M233 188 c-29 -30 -53 -60 -53 -69 0 -24 105 -121 126 -117 27 5 29 36 3 64 l-22 24 224 2 c210 3 224 4 227 22 2 10 -2 22 -10 27 -7 5 -109 9 -227 9 l-214 0 22 24 c27 28 24 60 -4 64 -13 2 -38 -16 -72 -50z"/>
 </g>

</svg>