<?xml version="1.0" encoding="UTF-8"?>
<svg width="98px" height="123px" viewBox="0 0 98 123" version="1.1" xmlns="http://www.w3.org/2000/svg" xmlns:xlink="http://www.w3.org/1999/xlink">
    <!-- Generator: Sketch 54.1 (76490) - https://sketchapp.com -->
    <title>gesture_1</title>
    <desc>Created with Sketch.</desc>
    <g id="Page-1" stroke="none" stroke-width="1" fill="none" fill-rule="evenodd">
        <g id="gesture_1" fill="#F9F9F9" fill-rule="nonzero">
            <path d="M54.1,120.9 C43.6,117.1 30.3,110.2 26.8,106.6 C24.8,104.6 22,100.6 20.5,97.8 C17.6,92.6 17.4,88.6 19.5,78.2 C20.1,75.3 19.2,73.7 10.8,62.2 C5.7,55.2 1.1,48.2 0.6,46.8 C-1.3,41.8 2,35.7 7.5,34.3 C12,33.2 16.3,36.1 22.6,44.9 C25.8,49.3 28.5,52.5 28.7,51.9 C29.4,49.9 35.1,47.7 38.1,48.3 C40.4,48.8 41.8,48.3 44.2,46.3 C46.6,44.3 48.1,43.8 51.2,44.1 C54.4,44.4 55.7,44 57.5,42.2 C59.8,39.9 64.8,39.1 68.3,40.5 C70.4,41.3 82,57.2 85.3,63.7 C86.8,66.6 89.4,73.2 91,78.2 C92.6,83.2 94.9,89.3 96.1,91.6 C98.4,96.2 98,98.9 95,98.9 C92.4,98.9 90,94.2 84.8,79.1 C79.9,65 79.5,64.2 72,54.1 C67.3,47.7 65.4,45.9 63.5,45.9 C59.5,45.9 59.3,49.2 63,54.4 C65.7,58.1 66,59.1 64.9,60.4 C62.8,62.9 61.2,62.1 56.7,56.2 C53.4,51.9 51.7,50.4 49.9,50.4 C46.3,50.4 46.1,54.1 49.4,59 C52.3,63.1 52.2,65.9 49,65.9 C47.7,65.9 45.6,64 43.2,60.4 C39.1,54.6 36.7,53 34.4,54.9 C32.1,56.8 32.6,58.5 37,64.9 C41.3,70.9 41.6,73.9 38,73.9 C36.6,73.9 32.6,69.1 24.2,57.4 C17.7,48.4 11.6,40.7 10.6,40.3 C8.5,39.6 5.9,41.5 5.9,43.6 C5.9,44.4 12.8,54.4 21.2,66 C29.5,77.6 36.8,87.6 37.3,88.3 C38.6,90.2 37.3,92.9 35,92.9 C33.8,92.9 31.6,90.8 29.1,87.3 L25,81.6 L24.4,85.2 C23.4,90.3 24.5,93.8 28.7,99.3 C33.1,105.2 40.2,109.3 54.3,114.3 C64.2,117.8 66.2,119.1 65.2,121.6 C64.5,123.4 60.5,123.1 54.1,120.9 Z" id="Path"></path>
            <path d="M23.2,18.7 C20.3,15.7 17.9,12.7 17.9,11.8 C17.9,9.4 28.4,-0.3 30.5,0.1 C33.2,0.6 33.4,3.7 30.8,6.5 L28.6,8.9 L51,9.1 C72,9.4 73.4,9.5 73.7,11.3 C73.9,12.3 73.5,13.5 72.7,14 C72,14.5 61.8,14.9 50,14.9 L28.6,14.9 L30.8,17.3 C33.5,20.1 33.2,23.3 30.4,23.7 C29.1,23.9 26.6,22.1 23.2,18.7 Z" id="Path"></path>
        </g>
    </g>
</svg>