
<svg width="244px" height="123px" viewBox="0 0 244 123" version="1.1" xmlns="http://www.w3.org/2000/svg" xmlns:xlink="http://www.w3.org/1999/xlink">
    <defs>
        <path d="M29.6108521,218.688564 L51.2059571,218.688564 L51.2059571,144.705333 L29.6108521,144.705333 L29.6108521,131.908234 L90.796983,131.908234 L90.796983,144.705333 L69.3618417,144.705333 L69.3618417,176.21819 L140.785652,176.21819 L140.785652,144.705333 L119.350511,144.705333 L119.350511,131.908234 L180.536642,131.908234 L180.536642,144.705333 L158.941537,144.705333 L158.941537,218.688564 L180.536642,218.688564 L180.536642,231.485663 L119.350511,231.485663 L119.350511,218.688564 L140.785652,218.688564 L140.785652,186.215924 L69.3618417,186.215924 L69.3618417,218.688564 L90.796983,218.688564 L90.796983,231.485663 L29.6108521,231.485663 L29.6108521,218.688564 Z M164.700231,150.304064 L186.215355,150.304064 L186.215355,135.98731 L189.414629,135.98731 L189.414629,153.343375 L167.899506,153.343375 L167.899506,213.889651 L164.700231,213.889651 L164.700231,150.304064 Z M75.1205364,150.304064 L96.4756958,150.304064 L96.4756958,135.98731 L99.6749707,135.98731 L99.6749707,153.343375 L78.3198112,153.343375 L78.3198112,171.419278 L75.1205364,171.419278 L75.1205364,150.304064 Z M124.149423,150.304064 L137.426414,150.304064 L137.426414,153.343375 L124.149423,153.343375 L124.149423,150.304064 Z M34.4097643,150.304064 L47.8467186,153.343375 L34.4097643,153.343375 L34.4097643,150.304064 Z M75.1205364,191.814655 L137.586377,191.814655 L137.586377,194.853966 L78.3198112,194.853966 L78.3198112,213.889651 L75.1205364,213.889651 L75.1205364,191.814655 Z M186.295336,237.084394 L186.295336,223.167548 L189.334647,223.167548 L189.334647,240.123705 L124.149423,240.123705 L124.149423,237.084394 L186.295336,237.084394 Z M96.5556777,237.084394 L96.5556777,223.167548 L99.7549525,223.167548 L99.7549525,240.123705 L34.4097643,240.123705 L34.4097643,237.084394 L96.5556777,237.084394 Z M225.80638,118.391298 L245.401939,118.391298 L245.401939,134.387672 L225.80638,134.387672 L225.80638,118.391298 Z M230.605293,139.986403 L251.160633,139.986403 L251.160633,122.870283 L254.359908,122.870283 L254.359908,143.025714 L230.605293,143.025714 L230.605293,139.986403 Z M209.010188,219.488382 L230.605293,219.488382 L228.205837,167.900076 L209.010188,167.900076 L209.010188,154.303158 L245.401939,154.303158 L245.401939,219.488382 L263.797769,219.488382 L263.797769,231.485663 L209.010188,231.485663 L209.010188,219.488382 Z M251.00067,158.382233 L254.199944,158.382233 L254.199944,214.68947 L251.00067,214.68947 L251.00067,158.382233 Z M213.8091,173.498807 L224.846598,173.498807 L224.846598,176.538118 L213.8091,176.538118 L213.8091,173.498807 Z M269.556464,237.084394 L269.556464,223.967367 L272.755738,223.967367 L272.755738,240.123705 L213.8091,240.123705 L213.8091,237.084394 L269.556464,237.084394 Z" id="path-1"></path>
    </defs>
    <g id="Page-1" stroke="none" stroke-width="1" fill="none" fill-rule="evenodd" opacity="0.200000003">
        <g id="Artboard" transform="translate(-29.000000, -118.000000)" fill-rule="nonzero">
            <g id="Hi" transform="translate(151.183295, 179.257502) rotate(-360.000000) translate(-151.183295, -179.257502) ">
                <use fill="#FFFFFF" xlink:href="#path-1"></use>
                <use fill="#D8D8D8" xlink:href="#path-1"></use>
            </g>
        </g>
    </g>
</svg>
