<?xml version="1.0" encoding="UTF-8"?>
<svg width="243px" height="122px" viewBox="0 0 243 122" version="1.1" xmlns="http://www.w3.org/2000/svg" xmlns:xlink="http://www.w3.org/1999/xlink">
    <!-- Generator: Sketch 54.1 (76490) - https://sketchapp.com -->
    <title>Hi</title>
    <desc>Created with Sketch.</desc>
    <g id="Page-1" stroke="none" stroke-width="1" fill="none" fill-rule="evenodd" opacity="0.200000003">
        <g id="Artboard" transform="translate(-65.000000, -57.000000)" fill="#1F48FF" fill-rule="nonzero">
            <path d="M65,157.51774 L86.5822368,157.51774 L86.5822368,83.3718791 L65,83.3718791 L65,70.5466491 L126.149671,70.5466491 L126.149671,83.3718791 L104.727303,83.3718791 L104.727303,114.954008 L176.108553,114.954008 L176.108553,83.3718791 L154.686184,83.3718791 L154.686184,70.5466491 L215.835855,70.5466491 L215.835855,83.3718791 L194.253618,83.3718791 L194.253618,157.51774 L215.835855,157.51774 L215.835855,170.34297 L154.686184,170.34297 L154.686184,157.51774 L176.108553,157.51774 L176.108553,124.973719 L104.727303,124.973719 L104.727303,157.51774 L126.149671,157.51774 L126.149671,170.34297 L65,170.34297 L65,157.51774 Z M200.008882,88.9829172 L221.511184,88.9829172 L221.511184,74.6346912 L224.708553,74.6346912 L224.708553,92.0289093 L203.20625,92.0289093 L203.20625,152.708279 L200.008882,152.708279 L200.008882,88.9829172 Z M110.482566,88.9829172 L131.825,88.9829172 L131.825,74.6346912 L135.022368,74.6346912 L135.022368,92.0289093 L113.679934,92.0289093 L113.679934,110.144547 L110.482566,110.144547 L110.482566,88.9829172 Z M159.482237,88.9829172 L172.751316,88.9829172 L172.751316,92.0289093 L159.482237,92.0289093 L159.482237,88.9829172 Z M69.7960526,88.9829172 L83.225,92.0289093 L69.7960526,92.0289093 L69.7960526,88.9829172 Z M110.482566,130.584757 L172.911184,130.584757 L172.911184,133.630749 L113.679934,133.630749 L113.679934,152.708279 L110.482566,152.708279 L110.482566,130.584757 Z M221.591118,175.954008 L221.591118,162.00657 L224.628618,162.00657 L224.628618,179 L159.482237,179 L159.482237,175.954008 L221.591118,175.954008 Z M131.904934,175.954008 L131.904934,162.00657 L135.102303,162.00657 L135.102303,179 L69.7960526,179 L69.7960526,175.954008 L131.904934,175.954008 Z M261.078618,57 L280.6625,57 L280.6625,73.0315375 L261.078618,73.0315375 L261.078618,57 Z M265.874671,78.6425756 L286.417763,78.6425756 L286.417763,61.4888305 L289.615132,61.4888305 L289.615132,81.6885677 L265.874671,81.6885677 L265.874671,78.6425756 Z M244.292434,158.319317 L265.874671,158.319317 L263.476645,106.617608 L244.292434,106.617608 L244.292434,92.9908016 L280.6625,92.9908016 L280.6625,158.319317 L299.047368,158.319317 L299.047368,170.34297 L244.292434,170.34297 L244.292434,158.319317 Z M286.257895,97.0788436 L289.455263,97.0788436 L289.455263,153.509855 L286.257895,153.509855 L286.257895,97.0788436 Z M249.088487,112.228647 L260.119408,112.228647 L260.119408,115.274639 L249.088487,115.274639 L249.088487,112.228647 Z M304.802632,175.954008 L304.802632,162.808147 L308,162.808147 L308,179 L249.088487,179 L249.088487,175.954008 L304.802632,175.954008 Z" id="Hi" transform="translate(186.500000, 118.000000) rotate(-360.000000) translate(-186.500000, -118.000000) "></path>
        </g>
    </g>
</svg>